# xmcd
#
# Track frame offsets:
#	150
#	20810
#	34142
#	62575
#	80999
#	92633
#	110125
#	128311
#	147084
#	165866
#	184178
#	197004
#
# Disc length: 2907 seconds
# Revision: 7
# Processed by: cddbd v1.5.2PL0 Copyright (c) Steve Scherf et al.
# Submitted via: dBpowerAMP V12.0
#
DISCID=9e0b590c
DTITLE=RayCharles,Albany,GA&TheCountBasieOrchestra,NYC - Ray Sings Basie Swings[liveInConcert]
DYEAR=1975
DGENRE=Jazz
TTITLE0=Oh, What A Beautiful Morning[liveInConcert]
TTITLE1=Let The Good Times Roll[liveInConcert]
TTITLE2=How Long Has This Been Going On[liveInConcert]
TTITLE3=Every Saturday Night[liveInConcert]
TTITLE4=Busted[liveInConcert]
TTITLE5=Crying Time[liveInConcert]
TTITLE6=I Can't Stop Loving You[liveInConcert]
TTITLE7=Come Live With Me[liveInConcert]
TTITLE8=Feel So Bad[liveInConcert]
TTITLE9=The Long And Winding Road[liveInConcert]
TTITLE10=Look What They've Done To My Song[liveInConcert]
TTITLE11=Georgia On My Mind[liveInConcert]
EXTD=
EXTT0=
EXTT1=
EXTT2=
EXTT3=
EXTT4=
EXTT5=
EXTT6=
EXTT7=
EXTT8=
EXTT9=
EXTT10=
EXTT11=
PLAYORDER=
